<svg width="143" height="24" viewBox="0 0 143 24" fill="none" xmlns="http://www.w3.org/2000/svg">
<g clip-path="url(#clip0_1_6)">
<path fill-rule="evenodd" clip-rule="evenodd" d="M8 5.33333H2V9.77777V14.2222H8V18.6667H14V14.2222V9.77777H8V5.33333Z" fill="#171212"/>
</g>
<path d="M38.462 19.716C37.43 19.716 36.512 19.5 35.708 19.068C34.916 18.636 34.292 18.042 33.836 17.286C33.38 16.53 33.152 15.672 33.152 14.712V6.09H35.6V14.586C35.6 15.138 35.72 15.636 35.96 16.08C36.212 16.524 36.554 16.872 36.986 17.124C37.418 17.364 37.91 17.484 38.462 17.484C39.026 17.484 39.518 17.364 39.938 17.124C40.37 16.872 40.706 16.524 40.946 16.08C41.198 15.636 41.324 15.138 41.324 14.586V6.09H43.772V14.712C43.772 15.672 43.544 16.53 43.088 17.286C42.632 18.042 42.002 18.636 41.198 19.068C40.406 19.5 39.494 19.716 38.462 19.716ZM46.0179 23.1V9.708H48.2319V11.652L48.0159 11.166C48.3519 10.638 48.8079 10.23 49.3839 9.942C49.9599 9.642 50.6259 9.492 51.3819 9.492C52.3059 9.492 53.1399 9.72 53.8839 10.176C54.6279 10.632 55.2159 11.244 55.6479 12.012C56.0919 12.78 56.3139 13.644 56.3139 14.604C56.3139 15.552 56.0979 16.416 55.6659 17.196C55.2339 17.976 54.6459 18.594 53.9019 19.05C53.1579 19.494 52.3119 19.716 51.3639 19.716C50.6559 19.716 50.0019 19.578 49.4019 19.302C48.8139 19.014 48.3459 18.606 47.9979 18.078L48.3759 17.61V23.1H46.0179ZM51.0939 17.556C51.6339 17.556 52.1139 17.43 52.5339 17.178C52.9539 16.926 53.2779 16.578 53.5059 16.134C53.7459 15.69 53.8659 15.18 53.8659 14.604C53.8659 14.028 53.7459 13.524 53.5059 13.092C53.2779 12.648 52.9539 12.3 52.5339 12.048C52.1139 11.784 51.6339 11.652 51.0939 11.652C50.5779 11.652 50.1099 11.778 49.6899 12.03C49.2819 12.282 48.9579 12.636 48.7179 13.092C48.4899 13.536 48.3759 14.04 48.3759 14.604C48.3759 15.18 48.4899 15.69 48.7179 16.134C48.9579 16.578 49.2819 16.926 49.6899 17.178C50.1099 17.43 50.5779 17.556 51.0939 17.556ZM61.0817 19.716C60.3977 19.716 59.8037 19.602 59.2997 19.374C58.7957 19.146 58.4057 18.822 58.1297 18.402C57.8537 17.97 57.7157 17.472 57.7157 16.908C57.7157 16.368 57.8357 15.888 58.0757 15.468C58.3157 15.036 58.6877 14.676 59.1917 14.388C59.6957 14.1 60.3317 13.896 61.0997 13.776L64.3037 13.254V15.054L61.5497 15.522C61.0817 15.606 60.7337 15.756 60.5057 15.972C60.2777 16.188 60.1637 16.47 60.1637 16.818C60.1637 17.154 60.2897 17.424 60.5417 17.628C60.8057 17.82 61.1297 17.916 61.5137 17.916C62.0057 17.916 62.4377 17.814 62.8097 17.61C63.1937 17.394 63.4877 17.1 63.6917 16.728C63.9077 16.356 64.0157 15.948 64.0157 15.504V12.984C64.0157 12.564 63.8477 12.216 63.5117 11.94C63.1877 11.652 62.7557 11.508 62.2157 11.508C61.7117 11.508 61.2617 11.646 60.8657 11.922C60.4817 12.186 60.1997 12.54 60.0197 12.984L58.0937 12.048C58.2857 11.532 58.5857 11.088 58.9937 10.716C59.4137 10.332 59.9057 10.032 60.4697 9.816C61.0337 9.6 61.6457 9.492 62.3057 9.492C63.1097 9.492 63.8177 9.642 64.4297 9.942C65.0417 10.23 65.5157 10.638 65.8517 11.166C66.1997 11.682 66.3737 12.288 66.3737 12.984V19.5H64.1417V17.826L64.6457 17.79C64.3937 18.21 64.0937 18.564 63.7457 18.852C63.3977 19.128 63.0017 19.344 62.5577 19.5C62.1137 19.644 61.6217 19.716 61.0817 19.716ZM68.5531 19.5V5.874H70.9111V11.634L70.5871 11.292C70.8151 10.704 71.1871 10.26 71.7031 9.96C72.2311 9.648 72.8431 9.492 73.5391 9.492C74.2591 9.492 74.8951 9.648 75.4471 9.96C76.0111 10.272 76.4491 10.71 76.7611 11.274C77.0731 11.826 77.2291 12.468 77.2291 13.2V19.5H74.8711V13.758C74.8711 13.326 74.7871 12.954 74.6191 12.642C74.4511 12.33 74.2171 12.09 73.9171 11.922C73.6291 11.742 73.2871 11.652 72.8911 11.652C72.5071 11.652 72.1651 11.742 71.8651 11.922C71.5651 12.09 71.3311 12.33 71.1631 12.642C70.9951 12.954 70.9111 13.326 70.9111 13.758V19.5H68.5531ZM82.193 19.716C81.509 19.716 80.915 19.602 80.411 19.374C79.907 19.146 79.517 18.822 79.241 18.402C78.965 17.97 78.827 17.472 78.827 16.908C78.827 16.368 78.947 15.888 79.187 15.468C79.427 15.036 79.799 14.676 80.303 14.388C80.807 14.1 81.443 13.896 82.211 13.776L85.415 13.254V15.054L82.661 15.522C82.193 15.606 81.845 15.756 81.617 15.972C81.389 16.188 81.275 16.47 81.275 16.818C81.275 17.154 81.401 17.424 81.653 17.628C81.917 17.82 82.241 17.916 82.625 17.916C83.117 17.916 83.549 17.814 83.921 17.61C84.305 17.394 84.599 17.1 84.803 16.728C85.019 16.356 85.127 15.948 85.127 15.504V12.984C85.127 12.564 84.959 12.216 84.623 11.94C84.299 11.652 83.867 11.508 83.327 11.508C82.823 11.508 82.373 11.646 81.977 11.922C81.593 12.186 81.311 12.54 81.131 12.984L79.205 12.048C79.397 11.532 79.697 11.088 80.105 10.716C80.525 10.332 81.017 10.032 81.581 9.816C82.145 9.6 82.757 9.492 83.417 9.492C84.221 9.492 84.929 9.642 85.541 9.942C86.153 10.23 86.627 10.638 86.963 11.166C87.311 11.682 87.485 12.288 87.485 12.984V19.5H85.253V17.826L85.757 17.79C85.505 18.21 85.205 18.564 84.857 18.852C84.509 19.128 84.113 19.344 83.669 19.5C83.225 19.644 82.733 19.716 82.193 19.716ZM89.6644 19.5V9.708H91.8784V11.886L91.6984 11.562C91.9264 10.83 92.2804 10.32 92.7604 10.032C93.2524 9.744 93.8404 9.6 94.5244 9.6H95.1004V11.688H94.2544C93.5824 11.688 93.0424 11.898 92.6344 12.318C92.2264 12.726 92.0224 13.302 92.0224 14.046V19.5H89.6644ZM96.5948 19.5V6.09H100.969C102.385 6.09 103.615 6.378 104.659 6.954C105.715 7.518 106.531 8.304 107.107 9.312C107.683 10.308 107.971 11.466 107.971 12.786C107.971 14.094 107.683 15.258 107.107 16.278C106.531 17.286 105.715 18.078 104.659 18.654C103.615 19.218 102.385 19.5 100.969 19.5H96.5948ZM99.0428 17.34H101.023C101.935 17.34 102.721 17.154 103.381 16.782C104.053 16.398 104.575 15.87 104.947 15.198C105.319 14.514 105.505 13.71 105.505 12.786C105.505 11.85 105.319 11.046 104.947 10.374C104.575 9.702 104.053 9.18 103.381 8.808C102.721 8.436 101.935 8.25 101.023 8.25H99.0428V17.34ZM114.509 19.716C113.549 19.716 112.673 19.494 111.881 19.05C111.101 18.606 110.477 18 110.009 17.232C109.553 16.464 109.325 15.588 109.325 14.604C109.325 13.62 109.553 12.744 110.009 11.976C110.477 11.208 111.101 10.602 111.881 10.158C112.661 9.714 113.537 9.492 114.509 9.492C115.469 9.492 116.339 9.714 117.119 10.158C117.899 10.602 118.517 11.208 118.973 11.976C119.441 12.732 119.675 13.608 119.675 14.604C119.675 15.588 119.441 16.464 118.973 17.232C118.505 18 117.881 18.606 117.101 19.05C116.321 19.494 115.457 19.716 114.509 19.716ZM114.509 17.556C115.037 17.556 115.499 17.43 115.895 17.178C116.303 16.926 116.621 16.578 116.849 16.134C117.089 15.678 117.209 15.168 117.209 14.604C117.209 14.028 117.089 13.524 116.849 13.092C116.621 12.648 116.303 12.3 115.895 12.048C115.499 11.784 115.037 11.652 114.509 11.652C113.969 11.652 113.495 11.784 113.087 12.048C112.679 12.3 112.355 12.648 112.115 13.092C111.887 13.524 111.773 14.028 111.773 14.604C111.773 15.168 111.887 15.678 112.115 16.134C112.355 16.578 112.679 16.926 113.087 17.178C113.495 17.43 113.969 17.556 114.509 17.556ZM121.463 19.5V5.874H123.821V14.802L122.921 14.532L127.529 9.708H130.463L126.845 13.65L130.535 19.5H127.835L124.631 14.424L126.035 14.136L123.083 17.304L123.821 15.864V19.5H121.463ZM136.464 19.716C135.504 19.716 134.628 19.494 133.836 19.05C133.056 18.606 132.432 18 131.964 17.232C131.508 16.464 131.28 15.588 131.28 14.604C131.28 13.62 131.508 12.744 131.964 11.976C132.432 11.208 133.056 10.602 133.836 10.158C134.616 9.714 135.492 9.492 136.464 9.492C137.424 9.492 138.294 9.714 139.074 10.158C139.854 10.602 140.472 11.208 140.928 11.976C141.396 12.732 141.63 13.608 141.63 14.604C141.63 15.588 141.396 16.464 140.928 17.232C140.46 18 139.836 18.606 139.056 19.05C138.276 19.494 137.412 19.716 136.464 19.716ZM136.464 17.556C136.992 17.556 137.454 17.43 137.85 17.178C138.258 16.926 138.576 16.578 138.804 16.134C139.044 15.678 139.164 15.168 139.164 14.604C139.164 14.028 139.044 13.524 138.804 13.092C138.576 12.648 138.258 12.3 137.85 12.048C137.454 11.784 136.992 11.652 136.464 11.652C135.924 11.652 135.45 11.784 135.042 12.048C134.634 12.3 134.31 12.648 134.07 13.092C133.842 13.524 133.728 14.028 133.728 14.604C133.728 15.168 133.842 15.678 134.07 16.134C134.31 16.578 134.634 16.926 135.042 17.178C135.45 17.43 135.924 17.556 136.464 17.556Z" fill="#171212"/>
<defs>
<clipPath id="clip0_1_6">
<rect width="16" height="16" fill="white" transform="translate(0 4)"/>
</clipPath>
</defs>
</svg>
